<svg viewBox="0 0 34 28" fill="none" xmlns="http://www.w3.org/2000/svg">
<path d="M28.6666 0.666672H5.33331C4.00723 0.666672 2.73546 1.19346 1.79778 2.13114C0.860097 3.06882 0.333313 4.34059 0.333313 5.66667V22.3333C0.333313 23.6594 0.860097 24.9312 1.79778 25.8689C2.73546 26.8066 4.00723 27.3333 5.33331 27.3333H28.6666C29.9927 27.3333 31.2645 26.8066 32.2022 25.8689C33.1399 24.9312 33.6666 23.6594 33.6666 22.3333V5.66667C33.6666 4.34059 33.1399 3.06882 32.2022 2.13114C31.2645 1.19346 29.9927 0.666672 28.6666 0.666672ZM27.55 4.00001L17 11.9167L6.44998 4.00001H27.55ZM28.6666 24H5.33331C4.89129 24 4.46736 23.8244 4.1548 23.5119C3.84224 23.1993 3.66665 22.7754 3.66665 22.3333V6.08334L16 15.3333C16.2885 15.5497 16.6394 15.6667 17 15.6667C17.3606 15.6667 17.7115 15.5497 18 15.3333L30.3333 6.08334V22.3333C30.3333 22.7754 30.1577 23.1993 29.8452 23.5119C29.5326 23.8244 29.1087 24 28.6666 24Z" fill="black"/>
</svg>
